<svg width="61" height="78" viewBox="0 0 61 78" fill="none" xmlns="http://www.w3.org/2000/svg">
<g clip-path="url(#clip0_3_3957)">
<path d="M56.3 49.88H55.43V25.64C55.4221 19.073 52.8098 12.7773 48.1663 8.13373C43.5227 3.49018 37.227 0.877939 30.66 0.87H30.15C23.583 0.877939 17.2873 3.49018 12.6437 8.13373C8.00017 12.7773 5.38793 19.073 5.37999 25.64V49.14H4.51999V25.64C4.52528 18.8432 7.22696 12.3262 12.0321 7.51916C16.8372 2.71216 23.3532 0.00794431 30.15 0H30.66C37.4577 0.00793972 43.9747 2.71184 48.7814 7.51855C53.5882 12.3253 56.292 18.8423 56.3 25.64V49.88Z" fill="#33290E"/>
<path d="M8.25999 50.8H1.64999V74.1H8.25999V50.8Z" fill="#FBCB43"/>
<path d="M8.25999 50.8H1.64999V52.21H8.25999V50.8Z" fill="#BA9732"/>
<path d="M8.26 47.49H1.64C0.734253 47.49 0 48.2242 0 49.13V49.16C0 50.0657 0.734253 50.8 1.64 50.8H8.26C9.16575 50.8 9.9 50.0657 9.9 49.16V49.13C9.9 48.2242 9.16575 47.49 8.26 47.49Z" fill="#FBCB43"/>
<path d="M3.82 56.16C3.52729 56.1546 3.24431 56.2651 3.03267 56.4674C2.82103 56.6697 2.69787 56.9474 2.69 57.24V73.36H5V57.24C4.99768 57.0903 4.9648 56.9426 4.90338 56.806C4.84196 56.6694 4.75329 56.5468 4.64281 56.4457C4.53233 56.3445 4.40236 56.2671 4.26088 56.2179C4.1194 56.1688 3.96937 56.1491 3.82 56.16Z" fill="#B08E2F"/>
<path d="M6.99999 77H2.90999C2.57582 77 2.25534 76.8672 2.01904 76.6309C1.78274 76.3946 1.64999 76.0741 1.64999 75.74V74.09H8.24999V75.77C8.24221 76.0972 8.1074 76.4085 7.87409 76.6381C7.64078 76.8677 7.3273 76.9975 6.99999 77Z" fill="#B08E2F"/>
<path d="M59.17 50.8H52.56V74.1H59.17V50.8Z" fill="#FBCB43"/>
<path d="M59.17 50.8H52.56V52.21H59.17V50.8Z" fill="#BA9732"/>
<path d="M59.18 47.49H52.56C51.6542 47.49 50.92 48.2242 50.92 49.13V49.16C50.92 50.0657 51.6542 50.8 52.56 50.8H59.18C60.0857 50.8 60.82 50.0657 60.82 49.16V49.13C60.82 48.2242 60.0857 47.49 59.18 47.49Z" fill="#FBCB43"/>
<path d="M57 56.16C56.8547 56.156 56.7101 56.1809 56.5744 56.2331C56.4388 56.2854 56.3149 56.364 56.2098 56.4644C56.1047 56.5648 56.0206 56.6851 55.9623 56.8182C55.9039 56.9513 55.8726 57.0947 55.87 57.24V73.36H58.15V57.24C58.1461 57.0934 58.1132 56.949 58.0532 56.8151C57.9932 56.6812 57.9072 56.5606 57.8003 56.4602C57.6933 56.3597 57.5675 56.2815 57.4302 56.23C57.2928 56.1785 57.1466 56.1547 57 56.16Z" fill="#B08E2F"/>
<path d="M57.91 77H53.82C53.4866 76.9974 53.1677 76.8638 52.9319 76.628C52.6962 76.3923 52.5626 76.0733 52.56 75.74V74.09H59.17V75.77C59.1622 76.0989 59.026 76.4117 58.7905 76.6416C58.5551 76.8714 58.239 77.0001 57.91 77Z" fill="#B08E2F"/>
<path d="M7.53999 53.39H8.24999V56.77H7.53999C7.09707 56.77 6.6723 56.5941 6.35912 56.2809C6.04593 55.9677 5.86999 55.5429 5.86999 55.1C5.86465 54.8774 5.90391 54.6559 5.98544 54.4486C6.06697 54.2414 6.18914 54.0525 6.34475 53.8932C6.50036 53.7339 6.68626 53.6073 6.89153 53.5209C7.09679 53.4344 7.31727 53.39 7.53999 53.39Z" fill="#B08E2F"/>
<path d="M7.53999 58.6899H8.24999V62.0699H7.53999C7.09708 62.0699 6.67231 61.894 6.35912 61.5808C6.04594 61.2676 5.86999 60.8429 5.86999 60.3999C5.86601 60.1777 5.9062 59.9568 5.98822 59.7501C6.07025 59.5435 6.19247 59.3552 6.34781 59.1961C6.50315 59.0371 6.68851 58.9104 6.89316 58.8235C7.09781 58.7366 7.31766 58.6912 7.53999 58.6899Z" fill="#B08E2F"/>
<path d="M7.53999 64H8.24999V67.38H7.53999C7.31984 67.38 7.10186 67.3365 6.89859 67.2519C6.69532 67.1674 6.51078 67.0435 6.35557 66.8873C6.20037 66.7312 6.07757 66.5459 5.99423 66.3422C5.9109 66.1384 5.86867 65.9201 5.86999 65.7C5.86735 65.4785 5.90853 65.2587 5.99115 65.0533C6.07377 64.8478 6.1962 64.6606 6.35141 64.5027C6.50661 64.3447 6.69153 64.2189 6.89551 64.1326C7.09949 64.0464 7.31852 64.0013 7.53999 64Z" fill="#B08E2F"/>
<path d="M7.53999 69.3H8.24999V72.68H7.53999C7.09616 72.6774 6.67141 72.4992 6.35851 72.1845C6.04561 71.8697 5.86998 71.4439 5.86999 71C5.866 70.7782 5.90626 70.5578 5.9884 70.3517C6.07054 70.1457 6.19291 69.958 6.34839 69.7997C6.50386 69.6415 6.68931 69.5158 6.8939 69.43C7.0985 69.3442 7.31814 69.3 7.53999 69.3Z" fill="#B08E2F"/>
<path d="M53.28 53.39H52.56V56.77H53.28C53.5035 56.7767 53.726 56.7385 53.9344 56.6576C54.1429 56.5766 54.3329 56.4547 54.4933 56.299C54.6537 56.1432 54.7812 55.9568 54.8683 55.7509C54.9553 55.545 55.0001 55.3236 55 55.1C55.0055 54.8731 54.9648 54.6475 54.8802 54.4368C54.7955 54.2262 54.6689 54.035 54.5079 53.875C54.3469 53.7149 54.155 53.5894 53.9439 53.506C53.7328 53.4226 53.5069 53.3832 53.28 53.39Z" fill="#B08E2F"/>
<path d="M53.28 58.6899H52.56V62.0699H53.28C53.5035 62.0766 53.726 62.0384 53.9344 61.9575C54.1429 61.8765 54.3329 61.7546 54.4933 61.5988C54.6537 61.4431 54.7812 61.2567 54.8683 61.0508C54.9553 60.8448 55.0001 60.6235 55 60.3999C55.0041 60.1734 54.9623 59.9484 54.8772 59.7384C54.7921 59.5284 54.6654 59.3378 54.5047 59.1781C54.3441 59.0183 54.1527 58.8927 53.9423 58.8088C53.7318 58.7249 53.5065 58.6845 53.28 58.6899Z" fill="#B08E2F"/>
<path d="M53.28 64H52.56V67.38H53.28C53.5043 67.3867 53.7277 67.3482 53.9368 67.2666C54.1459 67.1851 54.3364 67.0622 54.4969 66.9054C54.6575 66.7486 54.7848 66.561 54.8712 66.3539C54.9576 66.1468 55.0014 65.9244 55 65.7C55.0027 65.4743 54.96 65.2503 54.8743 65.0415C54.7886 64.8327 54.6616 64.6433 54.5011 64.4846C54.3406 64.326 54.1497 64.2013 53.9399 64.118C53.7301 64.0347 53.5057 63.9946 53.28 64Z" fill="#B08E2F"/>
<path d="M53.28 69.3H52.56V72.6799H53.28C53.504 72.6853 53.7267 72.6458 53.9352 72.5637C54.1437 72.4817 54.3336 72.3588 54.4939 72.2023C54.6541 72.0457 54.7815 71.8587 54.8684 71.6522C54.9553 71.4458 55.0001 71.224 55 70.9999C55.0042 70.7739 54.9624 70.5493 54.8771 70.3398C54.7919 70.1304 54.6651 69.9404 54.5042 69.7814C54.3434 69.6225 54.152 69.4978 53.9415 69.4151C53.7311 69.3323 53.506 69.2931 53.28 69.3Z" fill="#B08E2F"/>
</g>
<defs>
<clipPath id="clip0_3_3957">
<rect width="60.82" height="77.03" fill="white"/>
</clipPath>
</defs>
</svg>
