<svg width="3" height="76" viewBox="0 0 3 76" fill="none" xmlns="http://www.w3.org/2000/svg">
<g clip-path="url(#clip0_3_3984)">
<path d="M22 18.41H3.85C2.82892 18.41 1.84965 18.8157 1.12764 19.5377C0.405624 20.2597 0 21.239 0 22.26L0 71.26C-1.49446e-06 71.8387 0.114138 72.4117 0.335884 72.9462C0.55763 73.4806 0.882626 73.9661 1.29226 74.3748C1.7019 74.7836 2.18813 75.1074 2.72312 75.328C3.25811 75.5485 3.83134 75.6614 4.41 75.66H21.41C22.577 75.66 23.6961 75.1965 24.5213 74.3713C25.3464 73.5461 25.81 72.427 25.81 71.26V22.26C25.8127 21.245 25.4134 20.2703 24.6994 19.5488C23.9855 18.8274 23.015 18.418 22 18.41Z" fill="#4292A6"/>
<path d="M25.85 27.05H0V41.4701H25.85V27.05Z" fill="#163138"/>
<path d="M12.6 29.21H7.32001C4.69665 29.21 2.57001 31.3366 2.57001 33.96V34.05C2.57001 36.6733 4.69665 38.8 7.32001 38.8H12.6C15.2234 38.8 17.35 36.6733 17.35 34.05V33.96C17.35 31.3366 15.2234 29.21 12.6 29.21Z" fill="#295C69"/>
</g>
<defs>
<clipPath id="clip0_3_3984">
<rect width="25.85" height="75.67" fill="white"/>
</clipPath>
</defs>
</svg>
