<svg width="102" height="112" viewBox="0 0 102 112" fill="none" xmlns="http://www.w3.org/2000/svg">
<g filter="url(#filter0_d_3_3855)">
<rect x="40" y="30" width="32" height="32" rx="8" fill="white"/>
</g>
<path fill-rule="evenodd" clip-rule="evenodd" d="M58.5665 39.6672C58.9872 39.6672 59.4072 39.7265 59.8065 39.8605C62.2672 40.6605 63.1539 43.3605 62.4132 45.7205C61.9932 46.9265 61.3065 48.0272 60.4072 48.9265C59.1199 50.1732 57.7072 51.2798 56.1865 52.2332L56.0199 52.3338L55.8465 52.2265C54.3205 51.2798 52.8999 50.1732 51.6005 48.9198C50.7072 48.0205 50.0199 46.9265 49.5932 45.7205C48.8399 43.3605 49.7265 40.6605 52.2139 39.8465C52.4072 39.7798 52.6065 39.7332 52.8065 39.7072H52.8865C53.0739 39.6798 53.2599 39.6672 53.4465 39.6672H53.5199C53.9399 39.6798 54.3465 39.7532 54.7405 39.8872H54.7799C54.8065 39.8998 54.8265 39.9138 54.8399 39.9265C54.9872 39.9738 55.1265 40.0272 55.2599 40.1005L55.5132 40.2138C55.5744 40.2465 55.6431 40.2964 55.7025 40.3395C55.7401 40.3668 55.774 40.3914 55.7999 40.4072C55.8107 40.4136 55.8218 40.42 55.833 40.4265C55.8901 40.4599 55.9497 40.4947 55.9999 40.5332C56.7405 39.9672 57.6399 39.6605 58.5665 39.6672ZM60.3399 44.4672C60.6132 44.4598 60.8465 44.2405 60.8665 43.9598V43.8805C60.8865 42.9465 60.3205 42.1005 59.4599 41.7738C59.1865 41.6798 58.8865 41.8272 58.7865 42.1072C58.6932 42.3872 58.8399 42.6938 59.1199 42.7932C59.5472 42.9532 59.8332 43.3738 59.8332 43.8398V43.8605C59.8205 44.0132 59.8665 44.1605 59.9599 44.2738C60.0532 44.3872 60.1932 44.4532 60.3399 44.4672Z" fill="#FF0000"/>
<defs>
<filter id="filter0_d_3_3855" x="0" y="0" width="112" height="112" filterUnits="userSpaceOnUse" color-interpolation-filters="sRGB">
<feFlood flood-opacity="0" result="BackgroundImageFix"/>
<feColorMatrix in="SourceAlpha" type="matrix" values="0 0 0 0 0 0 0 0 0 0 0 0 0 0 0 0 0 0 127 0" result="hardAlpha"/>
<feOffset dy="10"/>
<feGaussianBlur stdDeviation="20"/>
<feColorMatrix type="matrix" values="0 0 0 0 0.113725 0 0 0 0 0.0862745 0 0 0 0 0.0901961 0 0 0 0.07 0"/>
<feBlend mode="normal" in2="BackgroundImageFix" result="effect1_dropShadow_3_3855"/>
<feBlend mode="normal" in="SourceGraphic" in2="effect1_dropShadow_3_3855" result="shape"/>
</filter>
</defs>
</svg>
